<mxfile host="app.diagrams.net" modified="2021-09-06T13:38:37.145Z" agent="5.0 (X11)" etag="Kg4xu_7t3SbbasgbQOJK" version="14.9.2" type="github">
  <diagram id="jbfDIuy_9JBT4dEep4jn" name="Page-1">
    <mxGraphModel dx="1364" dy="793" grid="1" gridSize="10" guides="1" tooltips="1" connect="1" arrows="1" fold="1" page="1" pageScale="1" pageWidth="827" pageHeight="1169" math="0" shadow="1">
      <root>
        <mxCell id="0" />
        <mxCell id="1" parent="0" />
        <mxCell id="rBHBn_KKbUGXb9on9jDv-4" value="" style="edgeStyle=orthogonalEdgeStyle;orthogonalLoop=1;jettySize=auto;html=1;curved=1;" edge="1" parent="1" source="rBHBn_KKbUGXb9on9jDv-2" target="rBHBn_KKbUGXb9on9jDv-3">
          <mxGeometry relative="1" as="geometry" />
        </mxCell>
        <mxCell id="rBHBn_KKbUGXb9on9jDv-8" value="" style="edgeStyle=orthogonalEdgeStyle;orthogonalLoop=1;jettySize=auto;html=1;curved=1;" edge="1" parent="1" source="rBHBn_KKbUGXb9on9jDv-2" target="rBHBn_KKbUGXb9on9jDv-7">
          <mxGeometry relative="1" as="geometry" />
        </mxCell>
        <mxCell id="rBHBn_KKbUGXb9on9jDv-2" value="main" style="ellipse;whiteSpace=wrap;html=1;rounded=1;" vertex="1" parent="1">
          <mxGeometry x="430" y="120" width="120" height="80" as="geometry" />
        </mxCell>
        <mxCell id="rBHBn_KKbUGXb9on9jDv-6" value="" style="edgeStyle=orthogonalEdgeStyle;orthogonalLoop=1;jettySize=auto;html=1;curved=1;entryX=0;entryY=0.5;entryDx=0;entryDy=0;" edge="1" parent="1" source="rBHBn_KKbUGXb9on9jDv-3" target="rBHBn_KKbUGXb9on9jDv-5">
          <mxGeometry relative="1" as="geometry" />
        </mxCell>
        <mxCell id="rBHBn_KKbUGXb9on9jDv-18" style="edgeStyle=orthogonalEdgeStyle;curved=1;rounded=1;orthogonalLoop=1;jettySize=auto;html=1;entryX=0;entryY=0.625;entryDx=0;entryDy=0;entryPerimeter=0;" edge="1" parent="1" source="rBHBn_KKbUGXb9on9jDv-3" target="rBHBn_KKbUGXb9on9jDv-16">
          <mxGeometry relative="1" as="geometry" />
        </mxCell>
        <mxCell id="rBHBn_KKbUGXb9on9jDv-21" value="" style="edgeStyle=orthogonalEdgeStyle;curved=1;rounded=1;orthogonalLoop=1;jettySize=auto;html=1;" edge="1" parent="1" source="rBHBn_KKbUGXb9on9jDv-3" target="rBHBn_KKbUGXb9on9jDv-20">
          <mxGeometry relative="1" as="geometry" />
        </mxCell>
        <mxCell id="rBHBn_KKbUGXb9on9jDv-3" value="codificador" style="ellipse;whiteSpace=wrap;html=1;rounded=1;" vertex="1" parent="1">
          <mxGeometry x="320" y="270" width="120" height="80" as="geometry" />
        </mxCell>
        <mxCell id="rBHBn_KKbUGXb9on9jDv-5" value="bitmap" style="ellipse;whiteSpace=wrap;html=1;rounded=1;" vertex="1" parent="1">
          <mxGeometry x="430" y="430" width="120" height="80" as="geometry" />
        </mxCell>
        <mxCell id="rBHBn_KKbUGXb9on9jDv-10" value="" style="edgeStyle=orthogonalEdgeStyle;orthogonalLoop=1;jettySize=auto;html=1;curved=1;entryX=1;entryY=0.5;entryDx=0;entryDy=0;" edge="1" parent="1" source="rBHBn_KKbUGXb9on9jDv-7" target="rBHBn_KKbUGXb9on9jDv-5">
          <mxGeometry relative="1" as="geometry">
            <mxPoint x="580" y="430" as="targetPoint" />
          </mxGeometry>
        </mxCell>
        <mxCell id="rBHBn_KKbUGXb9on9jDv-19" style="edgeStyle=orthogonalEdgeStyle;curved=1;rounded=1;orthogonalLoop=1;jettySize=auto;html=1;entryX=1.008;entryY=0.638;entryDx=0;entryDy=0;entryPerimeter=0;" edge="1" parent="1" target="rBHBn_KKbUGXb9on9jDv-16">
          <mxGeometry relative="1" as="geometry">
            <mxPoint x="580" y="351" as="sourcePoint" />
            <Array as="points">
              <mxPoint x="590" y="351" />
              <mxPoint x="590" y="641" />
            </Array>
          </mxGeometry>
        </mxCell>
        <mxCell id="rBHBn_KKbUGXb9on9jDv-7" value="decodificador" style="ellipse;whiteSpace=wrap;html=1;rounded=1;" vertex="1" parent="1">
          <mxGeometry x="520" y="270" width="120" height="80" as="geometry" />
        </mxCell>
        <mxCell id="rBHBn_KKbUGXb9on9jDv-16" value="&lt;div&gt;arvore&lt;/div&gt;" style="ellipse;whiteSpace=wrap;html=1;rounded=1;" vertex="1" parent="1">
          <mxGeometry x="430" y="590" width="120" height="80" as="geometry" />
        </mxCell>
        <mxCell id="rBHBn_KKbUGXb9on9jDv-20" value="lista" style="ellipse;whiteSpace=wrap;html=1;rounded=1;" vertex="1" parent="1">
          <mxGeometry x="110" y="370" width="120" height="80" as="geometry" />
        </mxCell>
      </root>
    </mxGraphModel>
  </diagram>
</mxfile>
